<svg xmlns="http://www.w3.org/2000/svg" viewBox="0 0 512 512"><defs><style>.cls-1{isolation:isolate;}.cls-2{opacity:0.3;mix-blend-mode:multiply;}.cls-3{fill:#f93c1c;}.cls-4{fill:#f96248;}.cls-5{fill:#1ca0f9;}.cls-6{fill:#fed118;}.cls-7{fill:#fee993;}</style></defs><g class="cls-1"><g id="Layer_1" data-name="Layer 1"><g class="cls-2"><path class="cls-3" d="M482.36,173.36c5.57-.57-5.18-1.23-23.89-1.47,0,0-4.22,0-17.47.91-16.34,1.2-32.27,2.44-52.69,7.91-25.35,6.78-38.72,15-44.54,18.92-12,8-17.09,14.54-18.92,17a62.53,62.53,0,0,0-11.73,28.5c-1.57,12.05,1.07,21.2,3.11,28.26,4.36,15.1,11.68,25.2,16.76,32.09,8.37,11.33,16.36,18.13,25.15,25.62a228.59,228.59,0,0,0,33.53,23.71c18.1,10.52,32.75,15.77,50.53,22,12.82,4.52,18.12,5.92,18.12,5.92,18.09,4.78,26.78,6.23,19.32,3.23l-8.47-4.36a231.7,231.7,0,0,1-27.06-16.52c-8.54-6-17.47-12.31-26.82-21.8A128,128,0,0,1,391,306c-3.57-7.78-8.33-18.39-9.58-33.29a85.66,85.66,0,0,1,2.15-28c5.73-22.11,19.64-35.58,26.35-41.91a99.76,99.76,0,0,1,36.4-22c9.76-3.21,20.92-5,29-6.23Z"/><path class="cls-4" d="M516.07,172c1.06,1.14.65,2.08-.9,2.08h-.8a2.84,2.84,0,0,0-2.83,2.83v30.73a2.85,2.85,0,0,1-2.84,2.84H490.89a2.85,2.85,0,0,1-2.84-2.84V178.11c0-1.56,0-2.84,0-2.84s0-1.27,0-2.83c0,0,0-2.15-.2-5.19a69.11,69.11,0,0,0-1-8c-.89-4.6-2.1-8-4.19-13.89-1.08-3-1.63-4.43-1.63-4.43-.57-1.45-1.5-1.45-2.07,0,0,0-.54,1.4-1.63,4.43-2.09,5.86-3.3,9.29-4.19,13.89a69.11,69.11,0,0,0-1,8c-.22,3-.19,5.19-.19,5.19,0,1.56,0,2.83,0,2.83s0,1.28,0,2.84v29.52a2.85,2.85,0,0,1-2.84,2.84H451.25a2.84,2.84,0,0,1-2.83-2.84V176.9a2.85,2.85,0,0,0-2.84-2.83h-.79c-1.56,0-2-.94-.91-2.08L459,155.61l3.85-4.16,15.16-16.37a2.58,2.58,0,0,1,3.85,0l15.16,16.37,3.85,4.16Z"/><path class="cls-5" d="M279.7,269.25a6.38,6.38,0,0,1,5.64,6.21V384.82a5,5,0,0,1-5.64,5.08l-54.82-5.77a6.44,6.44,0,0,1-5.63-6.26V278.52c0-3.12.06-7.19.13-9s-9.36-6.9-6.26-6.6Z"/><path class="cls-5" d="M238.42,155.21a94.39,94.39,0,0,0-6.74,22,100,100,0,0,1-26.33-14.39l-.27-.27A54.86,54.86,0,0,1,223,143.27l.27.22A66.42,66.42,0,0,0,238.42,155.21Z"/><path class="cls-5" d="M231.06,181h0c-.38,2.5-.68,5.1-.9,7.82a112.34,112.34,0,0,0-.37,12.21c-20.93-6.15-29.35-18.93-29.57-19.26h0l-1.13-2A53.5,53.5,0,0,1,203.36,166,101.78,101.78,0,0,0,231.06,181Z"/><path class="cls-5" d="M232.67,221.68c-21.35-4.89-29.56-15.12-29.66-15.25l-2.83-3.28h0A55.24,55.24,0,0,1,198.31,189c0-1.15,0-2.28.12-3.41,3.26,4.16,12.84,14.33,31.53,19.4A82.94,82.94,0,0,0,232.67,221.68Z"/><path class="cls-5" d="M243.39,242.8a54.75,54.75,0,0,1-40-30.78c4.54,4,14,10.4,30.53,13.74A49.9,49.9,0,0,0,243.39,242.8Z"/><path class="cls-5" d="M252.79,134.3A61.84,61.84,0,0,0,240,151.86,64.86,64.86,0,0,1,226.2,141.3,54.34,54.34,0,0,1,252.79,134.3Z"/><path class="cls-5" d="M255.71,157.14a37.58,37.58,0,0,1-12.35-3.56,60.31,60.31,0,0,1,12.13-16.76,79.06,79.06,0,0,1,13.72,20.48A78.94,78.94,0,0,1,255.71,157.14Z"/><path class="cls-5" d="M255.53,181.75a68.1,68.1,0,0,1-20.32-3.3,92,92,0,0,1,6.55-21.54,41.54,41.54,0,0,0,13.61,3.9c2.68.24,5.35.37,8,.37s5-.12,7.45-.35a94.41,94.41,0,0,1,6.13,20.71c-7.07.42-13.59.32-18.09.24Z"/><path class="cls-5" d="M251.26,204.26A86.62,86.62,0,0,1,233.51,202a106.11,106.11,0,0,1,.31-12.91c.21-2.42.46-4.73.79-7a72.31,72.31,0,0,0,20.91,3.26c.93,0,2,0,3.26,0,1.89,0,4.12.06,6.59.06,3.63,0,7.78-.07,12.13-.35q.15,1,.27,2c.66,5.58,1.07,10.67,1.29,15.27h0A141.93,141.93,0,0,1,251.26,204.26Z"/><path class="cls-5" d="M278.65,225.07a59.56,59.56,0,0,1-2.08,11.76,5.21,5.21,0,0,1-2.13,2.43A54.26,54.26,0,0,1,253,243.64c-.88,0-1.76,0-2.63-.08a11.21,11.21,0,0,1-2.76-1.72c-.09-.08-5.34-4.67-9.42-15.31a120.42,120.42,0,0,0,18.73,1.39c.22,0,.85.05,1.81.05A77,77,0,0,0,278.65,225.07Z"/><path class="cls-5" d="M279,221.1a71.48,71.48,0,0,1-21.9,3.16H257a111.63,111.63,0,0,1-20.16-1.72,76.61,76.61,0,0,1-3.08-16.65,92.15,92.15,0,0,0,17.44,2.05c1.57,0,3.11,0,4.6,0a140.09,140.09,0,0,0,23.45-1.81C279.39,212,279.26,217,279,221.1Z"/><path class="cls-5" d="M292.29,151a55,55,0,0,1-19.15,5.93,82.11,82.11,0,0,0-14.71-22.33A54.46,54.46,0,0,1,292.29,151Z"/><path class="cls-5" d="M305.84,174.94l-.39.25c-6.9,3.63-16.08,5.32-24.85,6.07a98.34,98.34,0,0,0-6-20.88,56.87,56.87,0,0,0,19.83-6.44l.34-.16A54.36,54.36,0,0,1,305.84,174.94Z"/><path class="cls-5" d="M282.48,223.91A83.26,83.26,0,0,0,301,215.23a54.94,54.94,0,0,1-20.38,20.94A79.83,79.83,0,0,0,282.48,223.91Z"/><path class="cls-5" d="M307.25,195.6a54.44,54.44,0,0,1-3.31,13.21l-2.38,1.63a79.08,79.08,0,0,1-18.8,9.46c.23-4.08.31-8.88.11-14.43C295.94,202.76,303.46,198.45,307.25,195.6Z"/><path class="cls-5" d="M307.66,189c0,.5,0,1,0,1.49l-1.52,1.37c-3,2.51-10,7.09-23.4,10-.24-4.54-.66-9.54-1.31-15-.07-.64-.15-1.26-.25-1.88,8.9-.79,18.26-2.53,25.53-6.23A54.56,54.56,0,0,1,307.66,189Z"/><path class="cls-6" d="M163.19,143.8a2.6,2.6,0,0,1-1.56,2.38,1.14,1.14,0,0,1-.26.09c-9.74,3.57-21.41,10.41-29.18,23.54-6,10.18-7.78,22.27-7.78,22.27l.24,191.39a2.62,2.62,0,0,1-2.6,2.5l-.32,0L60.16,381.1a2.62,2.62,0,0,1-2.33-2.59V193.24s1.43-50.37,55.56-54.92c3.49,0,28.91,1.66,47.06,2.88l.62,0A2.6,2.6,0,0,1,163.19,143.8Z"/><path class="cls-7" d="M6.1,258.78l26.59-9.58s21.79-10.06,42.86-2.4,36.88,12,36.88,12,29.46,9.58,54.6,8.38l-18.91,8.2s-14.37,5.57-26.95,5.57c-9.07,0-17.06-.09-30.62-4.4L49.69,263.42s-11.23-5-21.19-4.76S6.1,258.78,6.1,258.78Z"/><path class="cls-7" d="M92.64,247.38l17-6.13s14-6.45,27.46-1.54,23.62,7.67,23.62,7.67,18.87,6.14,35,5.37L183.59,258s-9.2,3.57-17.25,3.57a56,56,0,0,1-19.62-2.82l-26.17-8.4s-7.19-3.22-13.57-3S92.64,247.38,92.64,247.38Z"/><path class="cls-7" d="M149.57,239.06,160.92,235s9.31-4.3,18.3-1S195,239.06,195,239.06s12.57,4.09,23.31,3.58l-8.08,3.5a37.73,37.73,0,0,1-11.5,2.38,37.28,37.28,0,0,1-13.07-1.88l-17.45-5.59a24.66,24.66,0,0,0-9.05-2C154.88,239.13,149.57,239.06,149.57,239.06Z"/></g><path class="cls-3" d="M476.36,167.36c5.57-.57-5.18-1.23-23.89-1.47,0,0-4.22,0-17.47.91-16.34,1.2-32.27,2.44-52.69,7.91-25.35,6.78-38.72,15-44.54,18.92-12,8-17.09,14.54-18.92,17a62.53,62.53,0,0,0-11.73,28.5c-1.57,12.05,1.07,21.2,3.11,28.26,4.36,15.1,11.68,25.2,16.76,32.09,8.37,11.33,16.36,18.13,25.15,25.62a228.59,228.59,0,0,0,33.53,23.71c18.1,10.52,32.75,15.77,50.53,22,12.82,4.52,18.12,5.92,18.12,5.92,18.09,4.78,26.78,6.23,19.32,3.23l-8.47-4.36a231.7,231.7,0,0,1-27.06-16.52c-8.54-6-17.47-12.31-26.82-21.8A128,128,0,0,1,385,300c-3.57-7.78-8.33-18.39-9.58-33.29a85.66,85.66,0,0,1,2.15-28c5.73-22.11,19.64-35.58,26.35-41.91a99.76,99.76,0,0,1,36.4-22c9.76-3.21,20.92-5,29-6.23Z"/><path class="cls-4" d="M510.07,166c1.06,1.14.65,2.08-.9,2.08h-.8a2.84,2.84,0,0,0-2.83,2.83v30.73a2.85,2.85,0,0,1-2.84,2.84H484.89a2.85,2.85,0,0,1-2.84-2.84V172.11c0-1.56,0-2.84,0-2.84s0-1.27,0-2.83c0,0,0-2.15-.2-5.19a69.11,69.11,0,0,0-1-8c-.89-4.6-2.1-8-4.19-13.89-1.08-3-1.63-4.43-1.63-4.43-.57-1.45-1.5-1.45-2.07,0,0,0-.54,1.4-1.63,4.43-2.09,5.86-3.3,9.29-4.19,13.89a69.11,69.11,0,0,0-1,8c-.22,3-.19,5.19-.19,5.19,0,1.56,0,2.83,0,2.83s0,1.28,0,2.84v29.52a2.85,2.85,0,0,1-2.84,2.84H445.25a2.84,2.84,0,0,1-2.83-2.84V170.9a2.85,2.85,0,0,0-2.84-2.83h-.79c-1.56,0-2-.94-.91-2.08L453,149.61l3.85-4.16,15.16-16.37a2.58,2.58,0,0,1,3.85,0l15.16,16.37,3.85,4.16Z"/><path class="cls-5" d="M273.7,263.25a6.38,6.38,0,0,1,5.64,6.21V378.82a5,5,0,0,1-5.64,5.08l-54.82-5.77a6.44,6.44,0,0,1-5.63-6.26V272.52c0-3.12.06-7.19.13-9s-9.36-6.9-6.26-6.6Z"/><path class="cls-5" d="M232.42,149.21a94.39,94.39,0,0,0-6.74,22,100,100,0,0,1-26.33-14.39l-.27-.27A54.86,54.86,0,0,1,217,137.27l.27.22A66.42,66.42,0,0,0,232.42,149.21Z"/><path class="cls-5" d="M225.06,175h0c-.38,2.5-.68,5.1-.9,7.82a112.34,112.34,0,0,0-.37,12.21c-20.93-6.15-29.35-18.93-29.57-19.26h0l-1.13-2A53.5,53.5,0,0,1,197.36,160,101.78,101.78,0,0,0,225.06,175Z"/><path class="cls-5" d="M226.67,215.68c-21.35-4.89-29.56-15.12-29.66-15.25l-2.83-3.28h0A55.24,55.24,0,0,1,192.31,183c0-1.15,0-2.28.12-3.41,3.26,4.16,12.84,14.33,31.53,19.4A82.94,82.94,0,0,0,226.67,215.68Z"/><path class="cls-5" d="M237.39,236.8a54.75,54.75,0,0,1-40-30.78c4.54,4,14,10.4,30.53,13.74A49.9,49.9,0,0,0,237.39,236.8Z"/><path class="cls-5" d="M246.79,128.3A61.84,61.84,0,0,0,234,145.86,64.86,64.86,0,0,1,220.2,135.3,54.34,54.34,0,0,1,246.79,128.3Z"/><path class="cls-5" d="M249.71,151.14a37.58,37.58,0,0,1-12.35-3.56,60.31,60.31,0,0,1,12.13-16.76,79.06,79.06,0,0,1,13.72,20.48A78.94,78.94,0,0,1,249.71,151.14Z"/><path class="cls-5" d="M249.53,175.75a68.1,68.1,0,0,1-20.32-3.3,92,92,0,0,1,6.55-21.54,41.54,41.54,0,0,0,13.61,3.9c2.68.24,5.35.37,8,.37s5-.12,7.45-.35a94.41,94.41,0,0,1,6.13,20.71c-7.07.42-13.59.32-18.09.24Z"/><path class="cls-5" d="M245.26,198.26A86.62,86.62,0,0,1,227.51,196a106.11,106.11,0,0,1,.31-12.91c.21-2.42.46-4.73.79-7a72.31,72.31,0,0,0,20.91,3.26c.93,0,2,0,3.26,0,1.89,0,4.12.06,6.59.06,3.63,0,7.78-.07,12.13-.35q.15,1,.27,2c.66,5.58,1.07,10.67,1.29,15.27h0A141.93,141.93,0,0,1,245.26,198.26Z"/><path class="cls-5" d="M272.65,219.07a59.56,59.56,0,0,1-2.08,11.76,5.21,5.21,0,0,1-2.13,2.43A54.26,54.26,0,0,1,247,237.64c-.88,0-1.76,0-2.63-.08a11.21,11.21,0,0,1-2.76-1.72c-.09-.08-5.34-4.67-9.42-15.31a120.42,120.42,0,0,0,18.73,1.39c.22,0,.85.05,1.81.05A77,77,0,0,0,272.65,219.07Z"/><path class="cls-5" d="M273,215.1a71.48,71.48,0,0,1-21.9,3.16H251a111.63,111.63,0,0,1-20.16-1.72,76.61,76.61,0,0,1-3.08-16.65,92.15,92.15,0,0,0,17.44,2.05c1.57,0,3.11,0,4.6,0a140.09,140.09,0,0,0,23.45-1.81C273.39,206,273.26,211,273,215.1Z"/><path class="cls-5" d="M286.29,145a55,55,0,0,1-19.15,5.93,82.11,82.11,0,0,0-14.71-22.33A54.46,54.46,0,0,1,286.29,145Z"/><path class="cls-5" d="M299.84,168.94l-.39.25c-6.9,3.63-16.08,5.32-24.85,6.07a98.34,98.34,0,0,0-6-20.88,56.87,56.87,0,0,0,19.83-6.44l.34-.16A54.36,54.36,0,0,1,299.84,168.94Z"/><path class="cls-5" d="M276.48,217.91A83.26,83.26,0,0,0,295,209.23a54.94,54.94,0,0,1-20.38,20.94A79.83,79.83,0,0,0,276.48,217.91Z"/><path class="cls-5" d="M301.25,189.6a54.44,54.44,0,0,1-3.31,13.21l-2.38,1.63a79.08,79.08,0,0,1-18.8,9.46c.23-4.08.31-8.88.11-14.43C289.94,196.76,297.46,192.45,301.25,189.6Z"/><path class="cls-5" d="M301.66,183c0,.5,0,1,0,1.49l-1.52,1.37c-3,2.51-10,7.09-23.4,10-.24-4.54-.66-9.54-1.31-15-.07-.64-.15-1.26-.25-1.88,8.9-.79,18.26-2.53,25.53-6.23A54.56,54.56,0,0,1,301.66,183Z"/><path class="cls-6" d="M157.19,137.8a2.6,2.6,0,0,1-1.56,2.38,1.14,1.14,0,0,1-.26.09c-9.74,3.57-21.41,10.41-29.18,23.54-6,10.18-7.78,22.27-7.78,22.27l.24,191.39a2.62,2.62,0,0,1-2.6,2.5l-.32,0L54.16,375.1a2.62,2.62,0,0,1-2.33-2.59V187.24s1.43-50.37,55.56-54.92c3.49,0,28.91,1.66,47.06,2.88l.62,0A2.6,2.6,0,0,1,157.19,137.8Z"/><path class="cls-7" d="M.1,252.78l26.59-9.58s21.79-10.06,42.86-2.4,36.88,12,36.88,12,29.46,9.58,54.6,8.38l-18.91,8.2s-14.37,5.57-26.95,5.57c-9.07,0-17.06-.09-30.62-4.4L43.69,257.42s-11.23-5-21.19-4.76S.1,252.78.1,252.78Z"/><path class="cls-7" d="M86.64,241.38l17-6.13s14-6.45,27.46-1.54,23.62,7.67,23.62,7.67,18.87,6.14,35,5.37L177.59,252s-9.2,3.57-17.25,3.57a56,56,0,0,1-19.62-2.82l-26.17-8.4s-7.19-3.22-13.57-3S86.64,241.38,86.64,241.38Z"/><path class="cls-7" d="M143.57,233.06,154.92,229s9.31-4.3,18.3-1S189,233.06,189,233.06s12.57,4.09,23.31,3.58l-8.08,3.5a37.73,37.73,0,0,1-11.5,2.38,37.28,37.28,0,0,1-13.07-1.88l-17.45-5.59a24.66,24.66,0,0,0-9.05-2C148.88,233.13,143.57,233.06,143.57,233.06Z"/></g></g></svg>